<svg width="40" height="40" viewBox="0 0 40 40" fill="none" xmlns="http://www.w3.org/2000/svg">
<rect x="0.5" y="0.5" width="39" height="39" rx="5.5" fill="#7FD497" stroke="white"/>
<path d="M28.4091 28.2927H29.0909C30.5972 28.2927 31.8182 27.2553 31.8182 25.9756V14.3902C31.8182 13.1106 30.5972 12.0732 29.0909 12.0732H26.8115C26.0882 12.0732 25.3945 11.8291 24.883 11.3945L23.7534 10.4348C23.2419 10.0002 22.5482 9.7561 21.8249 9.7561H17.266C16.5427 9.7561 15.849 10.0002 15.3376 10.4348L14.2079 11.3945C13.6964 11.8291 13.0027 12.0732 12.2794 12.0732H10C8.49378 12.0732 7.27274 13.1106 7.27274 14.3902V25.9756C7.27274 27.2553 8.49378 28.2927 10 28.2927H18.1818C21.1942 28.2927 23.6364 26.2179 23.6364 23.6585C23.6364 21.0992 21.1942 19.0244 18.1818 19.0244H14.0909M14.0909 19.0244L16.8182 16.7073M14.0909 19.0244L16.8182 21.3415" stroke="white" stroke-linecap="round" stroke-linejoin="round"/>
</svg>
