<svg width="45" height="45" viewBox="0 0 45 45" fill="none" xmlns="http://www.w3.org/2000/svg">
<rect width="45" height="45" fill="#7FD497"/>
<path d="M1 0C0.447715 0 0 0.447715 0 1V44C0 44.5523 0.447715 45 1 45H44C44.5523 45 45 44.5523 45 44V1C45 0.447715 44.5523 0 44 0H1ZM41.5 3C42.0523 3 42.5 3.44772 42.5 4V24.4371C42.5 25.2725 41.5364 25.7396 40.8805 25.2221L34.4849 20.1754C34.0714 19.8491 33.4757 19.8995 33.1229 20.2906L22.6004 31.9556C22.2899 32.3 21.7833 32.3856 21.3768 32.1625L14.9572 28.6393C14.5764 28.4304 14.1042 28.4911 13.7887 28.7897L4.68737 37.4031C4.0499 38.0064 3 37.5545 3 36.6768V4C3 3.44772 3.44772 3 4 3H41.5ZM7.92201 42C7.03001 42 6.58434 40.9206 7.21652 40.2913L14.4786 33.0622C14.7887 32.7535 15.2636 32.6823 15.6507 32.8865L21.8111 36.1366C22.2162 36.3503 22.7147 36.2615 23.021 35.9211L33.097 24.7255C33.4602 24.322 34.0789 24.2819 34.4911 24.6352L42.1508 31.2007C42.3724 31.3907 42.5 31.668 42.5 31.9599V41C42.5 41.5523 42.0523 42 41.5 42H7.92201Z" fill="white"/>
<path d="M15.0977 20.4546H13.3954C12.8432 20.4546 12.3954 20.9023 12.3954 21.4546V23.5455C12.3954 24.0978 12.8432 24.5455 13.3954 24.5455H15.0977C15.65 24.5455 16.0977 24.0978 16.0977 23.5455V21.4546C16.0977 20.9023 15.65 20.4546 15.0977 20.4546Z" fill="white"/>
</svg>
